# AST/ASF file generated using VICON BodyLanguage
# -----------------------------------------------
:version 1.10
:name VICON
:units
  mass 1.0
  length 0.45
  angle deg
:documentation
   .ast/.asf automatically generated from VICON data using
   VICON BodyBuilder and BodyLanguage model FoxedUp or BRILLIANT.MOD
:root
   order TX TY TZ RX RY RZ
   axis XYZ
   position 0 0 0  
   orientation 0 -0 0 
:bonedata
  begin
     id 1 
     name lhipjoint
     direction 0.515797 -0.759363 0.396637 
     length 2.47888 
     axis 0 -0 0  XYZ
  end
  begin
     id 2 
     name lfemur
     direction 0.34202 -0.939693 0  
     length 6.81885  
     axis 0 -0 20  XYZ
    dof rx ry rz
    limits (-160.0 20.0)
           (-70.0 70.0)
           (-60.0 70.0)
  end
  begin
     id 3 
     name ltibia
     direction 0.342037 -0.939687 0   
     length 7.89258   
     axis 0 -0 20   XYZ
    dof rx
    limits (-10.0 170.0)
  end
  begin
     id 4 
     name lfoot
     direction 0.173497 -0.476678 0.861787   
     length 2.51543   
     axis -90 -1.13533e-015 20   XYZ
    dof rx rz
    limits (-45.0 90.0)
           (-70.0 20.0)
  end
  begin
     id 5 
     name ltoes
     direction 1.53564e-011 -4.21897e-011 1   
     length 1.21388   
     axis -90 -1.13533e-015 20   XYZ
    dof rx
    limits (-90.0 20.0)
  end
  begin
     id 6 
     name rhipjoint
     direction -0.489454 -0.772941 0.403729   
     length 2.43534  
     axis 0 -0 0  XYZ 
  end
  begin
     id 7 
     name rfemur
     direction -0.34202 -0.939693 0   
     length 7.10357   
     axis 0 -0 -20   XYZ
    dof rx ry rz
    limits (-160.0 20.0)
           (-70.0 70.0)
           (-70.0 60.0)
  end
  begin
     id 8 
     name rtibia
     direction -0.34202 -0.939693 0   
     length 9.16127   
     axis 0 -0 -20   XYZ
    dof rx
    limits (-10.0 170.0)
 end
 begin
     id 9 
     name rfoot
     direction -0.270974 -0.748671 0.605033   
     length 1.74894  
     axis -90 1.13533e-015 -20   XYZ
    dof rx rz
    limits (-45.0 90.0)
           (-20.0 70.0)
  end
  begin
     id 10 
     name rtoes
     direction -1.53557e-011 -4.21759e-011 1   
     length 0.787585   
     axis -90 1.13533e-015 -20   XYZ
    dof rx
    limits (-90.0 20.0)
  end
  begin
     id 11 
     name lowerback
     direction -0.0140249 0.999561 0.0260968   
     length 2.16963   
     axis 0 -0 0   XYZ
    dof rx ry rz
    limits (-20.0 45.0)
           (-30.0 30.0)
           (-30.0 30.0)
  end
  begin
     id 12 
     name upperback
     direction 0.00860018 0.999959 -0.002711   
     length 2.1726   
     axis 0 -0 0   XYZ
    dof rx ry rz
    limits (-20.0 45.0)
           (-30.0 30.0)
           (-30.0 30.0)
  end
  begin
     id 13 
     name thorax
     direction 0.015211 0.999782 -0.0143191   
     length 2.17061   
     axis 0 -0 0   XYZ
    dof rx ry rz
    limits (-20.0 45.0)
           (-30.0 30.0)
           (-30.0 30.0)
  end
  begin
     id 14 
     name lowerneck
     direction -0.0140143 0.999447 0.030145   
     length 2.26749   
     axis 0 -0 0   XYZ
    dof rx ry rz
    limits (-20.0 45.0)
           (-30.0 30.0)
           (-30.0 30.0)
  end
  begin
     id 15 
     name upperneck
     direction 0.118062 0.961438 -0.248392   
     length 2.22728   
     axis 0 -0 0   XYZ
    dof rx ry rz
    limits (-20.0 45.0)
           (-30.0 30.0)
           (-30.0 30.0)
  end
  begin
     id 16
     name head
     direction 0.0431885 0.9954 -0.085514  
     length 2.28786  
     axis 0 -0 0   XYZ
    dof rx ry rz
    limits (-20.0 45.0)
           (-30.0 30.0)
           (-30.0 30.0)
  end
  begin
     id 17 
     name lclavicle
     direction 0.912126 0.409548 0.0172323  
     length 4.31571  
     axis 0 -0 0   XYZ
    dof ry rz
    limits (-20.0 10.0)
           (0.0 20.0)
  end
  begin
     id 18 
     name lhumerus
     direction 1 -4.48977e-011 1.93091e-027   
     length 5.13658   
     axis 180 -30 -90   XYZ
    dof rx ry rz
    limits (-60.0 90.0)
           (-90.0 90.0)
           (-90.0 90.0)
  end
  begin
     id 19
     name lradius
     direction 1 -4.48916e-011 6.84018e-027   
     length 3.22473   
     axis 180 -30 -90   XYZ
    dof rx
    limits (-10.0 170.0)
  end
  begin
     id 20
     name lwrist
     direction 1 -4.48987e-011 7.01981e-027   
     length 1.61236   
     axis -4.37994e-015 90 90   XYZ
    dof ry
    limits (-180.0 0.0)
 end
  begin
     id 21 
     name lhand
     direction 1 -4.49037e-011 1.40335e-026   
     length 0.936406   
     axis -8.96029e-015 90 90   XYZ
    dof rx rz
    limits (-90.0 90.0)
           (-45.0 45.0)
  end
  begin
     id 22 
     name lfingers
     direction 1 -4.48886e-011 2.8104e-026   
     length 0.754955   
     axis -1.79203e-014 90 90   XYZ
    dof rx
    limits (0.0 90.0)
  end
  begin
     id 23
     name lthumb
     direction 0.707107 -6.34937e-011 0.707107   
     length 1.08397   
     axis -90 45 -4.48555e-014   XYZ
    dof rx rz
    limits (-45.0 45.0)
           (-45.0 45.0)
  end
  begin
     id 24 
     name rclavicle
     direction -0.947962 0.317997 0.0156638   
     length 4.86918  
     axis 0 -0 0   XYZ 
    dof ry rz
    limits (-10.0 20.0)
           (-20.0 0.0)
  end
  begin
     id 25 
     name rhumerus
     direction -1 -4.48951e-011 2.80534e-018  
     length 5.60911   
     axis 180 30 90   XYZ
    dof rx ry rz
    limits (-90.0 60.0)
           (-90.0 90.0)
           (-90.0 90.0)
  end
  begin
     id 26 
     name rradius
     direction -1 -4.4898e-011 2.11315e-027   
     length 3.38704   
     axis 180 30 90   XYZ
    dof rx
    limits (-10.0 170.0)
  end
  begin
     id 27 
     name rwrist
     direction -1 -4.48933e-011 7.02314e-027   
     length 1.69352   
     axis -4.37994e-015 -90 -90   XYZ
    dof ry
    limits (-180.0 0.0)
  end
  begin
     id 28
     name rhand
     direction -1 -4.48937e-011 1.40458e-026   
     length 0.755878   
     axis -8.96029e-015 -90 -90   XYZ
    dof rx rz
    limits (-90.0 90.0)
           (-45.0 45.0)
  end
  begin
     id 29
     name rfingers
     direction -1 -4.4901e-011 2.80737e-026   
     length 0.609409   
     axis -1.79203e-014 -90 -90   XYZ
    dof rx
    limits (0.0 90.0)
  end
  begin
     id 30
     name rthumb
     direction -0.707107 -6.34968e-011 0.707107   
     length 0.874992   
     axis -90 -45 4.48555e-014   XYZ
    dof rx rz
    limits (-45.0 45.0)
           (-45.0 45.0)
  end
:hierarchy
  begin
    root lhipjoint rhipjoint lowerback
    lhipjoint lfemur
    lfemur ltibia
    ltibia lfoot
    lfoot ltoes
    rhipjoint rfemur
    rfemur rtibia
    rtibia rfoot
    rfoot rtoes
    lowerback upperback
    upperback thorax
    thorax lowerneck lclavicle rclavicle
    lowerneck upperneck
    upperneck head
    lclavicle lhumerus
    lhumerus lradius
    lradius lwrist
    lwrist lhand lthumb
    lhand lfingers
    rclavicle rhumerus
    rhumerus rradius
    rradius rwrist
    rwrist rhand rthumb
    rhand rfingers
  end

#!OML:ASF C:\ViconDB\ViconDB\414\Spring2016\041811\Spring2016.ASF
:FULLY-SPECIFIED
:DEGREES
108
root 8.48198 18.0823 1.65704 -177.088 -2.88279 -178.1
lowerback 4.51182 0.118197 -2.95378
upperback 1.80396 -0.0308262 1.05766
thorax -0.673938 -0.0604785 2.74705
lowerneck -9.82354 -4.32567 -10.5519
upperneck 10.1033 -7.6584 19.4987
head 5.85208 -3.30337 7.37344
rclavicle -2.36057e-015 4.77083e-015
rhumerus -48.0341 -22.7751 -76.7149
rradius 35.6701
rwrist 42.6211
rhand -32.0245 -11.6791
rfingers 7.12502
rthumb -5.27236 -41.5935
lclavicle -2.36057e-015 4.77083e-015
lhumerus -37.8693 -14.0254 95.8998
lradius 40.8478
lwrist -23.0307
lhand -26.8923 14.0253
lfingers 7.12502
lthumb -0.316082 44.0049
rfemur -31.0065 -12.9613 22.2411
rtibia 26.8574
rfoot -160.215 7.73129
rtoes -9.53113
lfemur 8.84198 -6.33217 -17.7103
ltibia 10.005
lfoot -24.216 12.1898
ltoes -15.4169
109
root 8.48868 18.0541 1.54058 -177.245 -2.94049 -178.171
lowerback 4.69606 0.100458 -2.8789
upperback 1.89319 -0.0626873 1.10619
thorax -0.683017 -0.0805311 2.75694
lowerneck -10.0022 -4.38568 -10.5491
upperneck 10.1041 -7.69315 19.3718
head 5.88451 -3.31073 7.32356
rclavicle -4.17448e-015 7.95139e-016
rhumerus -48.1852 -22.8309 -76.5245
rradius 35.6048
rwrist 42.3649
rhand -31.6922 -11.4916
rfingers 7.12502
rthumb -4.95151 -41.4137
lclavicle -4.17448e-015 7.95139e-016
lhumerus -37.557 -13.9096 95.841
lradius 41.0236
lwrist -22.6563
lhand -26.902 14.0695
lfingers 7.12502
lthumb -0.325434 44.049
rfemur -31.1486 -13.2393 22.408
rtibia 27.2273
rfoot -160.29 7.45755
rtoes -9.42841
lfemur 9.52615 -6.1281 -17.7526
ltibia 9.76268
lfoot -24.1809 12.0532
ltoes -16.0762
110
root 8.49965 18.0205 1.42134 -177.315 -3.01663 -178.178
lowerback 4.76254 0.0513598 -2.8097
upperback 1.87295 -0.126717 1.20194
thorax -0.736422 -0.111759 2.82038
lowerneck -9.88225 -4.37293 -10.4503
upperneck 10.0861 -7.63404 19.0996
head 5.8316 -3.29167 7.21982
rclavicle 2.73329e-016 -3.77691e-015
rhumerus -48.5326 -22.6318 -76.2714
rradius 35.2587
rwrist 43.3173
rhand -32.1352 -11.66
rfingers 7.12502
rthumb -5.37931 -41.5717
lclavicle 2.73329e-016 -3.77691e-015
lhumerus -37.4027 -13.4647 95.8099
lradius 40.9663
lwrist -22.9356
lhand -27.1061 14.0629
lfingers 7.12502
lthumb -0.522551 44.042
rfemur -31.3847 -13.4997 22.6875
rtibia 27.7525
rfoot -160.497 7.21713
rtoes -9.82223
lfemur 9.91517 -5.94402 -17.6678
ltibia 9.86974
lfoot -24.2439 11.914
ltoes -16.6193
111
root 8.51161 17.985 1.29888 -177.42 -3.15011 -178.169
lowerback 4.82494 -0.0247777 -2.64106
upperback 1.91541 -0.225576 1.2799
thorax -0.721205 -0.163546 2.8112
lowerneck -9.98361 -4.3966 -10.6865
upperneck 10.1766 -7.64413 19.1764
head 5.89097 -3.29148 7.28818
rclavicle 2.01269e-015 -1.10325e-014
rhumerus -48.7636 -22.6233 -75.9593
rradius 35.0759
rwrist 43.9048
rhand -32.2076 -11.5085
rfingers 7.12502
rthumb -5.44914 -41.4185
lclavicle 2.01269e-015 -1.10325e-014
lhumerus -37.2028 -13.1956 95.7683
lradius 40.9227
lwrist -23.2282
lhand -27.2728 14.2009
lfingers 7.12502
lthumb -0.683574 44.1796
rfemur -31.5713 -13.9211 22.9925
rtibia 28.3723
rfoot -160.599 7.16603
rtoes -9.69667
lfemur 10.1824 -5.81786 -17.5678
ltibia 10.356
lfoot -24.4894 11.6512
ltoes -17.1334
112
root 8.52587 17.9483 1.17193 -177.534 -3.28956 -178.203
lowerback 4.88915 -0.097665 -2.44492
upperback 1.95704 -0.318754 1.27532
thorax -0.709226 -0.211628 2.70115
lowerneck -10.0311 -4.33808 -10.5009
upperneck 10.2233 -7.5579 18.9855
head 5.88433 -3.24601 7.1986
rclavicle 8.82107e-016 6.95746e-016
rhumerus -49.0045 -22.7794 -75.7728
rradius 34.9089
rwrist 44.1255
rhand -32.2257 -11.3539
rfingers 7.12502
rthumb -5.46666 -41.2634
lclavicle 8.82107e-016 6.95746e-016
lhumerus -37.0817 -12.9484 95.634
lradius 40.9229
lwrist -23.134
lhand -27.6019 14.1007
lfingers 7.12502
lthumb -1.00145 44.0781
rfemur -31.711 -14.342 23.2102
rtibia 29.1027
rfoot -160.846 7.15248
rtoes -9.4627
lfemur 10.2908 -5.63733 -17.4953
ltibia 11.1427
lfoot -24.7714 11.3545
ltoes -17.8885
113
root 8.54505 17.9106 1.04044 -177.664 -3.48439 -178.234
lowerback 4.94758 -0.16975 -2.2964
upperback 1.98561 -0.412 1.30988
thorax -0.707335 -0.259539 2.65844
lowerneck -10.0927 -4.32625 -10.5109
upperneck 10.3716 -7.52638 18.8466
head 5.92939 -3.22696 7.1583
rclavicle -1.06536e-014 -1.68967e-015
rhumerus -49.2517 -22.8202 -75.5626
rradius 34.7688
rwrist 44.2373
rhand -32.2984 -11.5089
rfingers 7.12502
rthumb -5.53685 -41.4166
lclavicle -1.06536e-014 -1.68967e-015
lhumerus -36.9121 -12.8541 95.5711
lradius 40.8119
lwrist -23.1691
lhand -27.833 14.3131
lfingers 7.12502
lthumb -1.22463 44.2893
rfemur -31.7847 -14.7838 23.4297
rtibia 29.8875
rfoot -161.041 7.18066
rtoes -9.48182
lfemur 10.3788 -5.41537 -17.3696
ltibia 12.0007
lfoot -24.986 10.9992
ltoes -18.5991
114
root 8.56693 17.8778 0.906182 -177.818 -3.73375 -178.18
lowerback 5.05619 -0.27994 -2.10311
upperback 1.99704 -0.554954 1.41015
thorax -0.748064 -0.331989 2.66173
lowerneck -10.1586 -4.31521 -10.6927
upperneck 10.5095 -7.48768 18.832
head 5.98267 -3.20547 7.19204
rclavicle 3.48417e-015 -7.05686e-015
rhumerus -49.4605 -22.6527 -75.4054
rradius 34.6634
rwrist 44.1424
rhand -32.4869 -11.6723
rfingers 7.12502
rthumb -5.71887 -41.5751
lclavicle 3.48417e-015 -7.05686e-015
lhumerus -36.7812 -12.4747 95.4993
lradius 40.6422
lwrist -23.5092
lhand -27.9577 14.4522
lfingers 7.12502
lthumb -1.3451 44.4277
rfemur -31.775 -15.1454 23.7154
rtibia 30.7133
rfoot -161.277 7.11665
rtoes -9.6131
lfemur 10.4182 -5.09787 -17.0746
ltibia 12.96
lfoot -25.0799 10.5112
ltoes -19.6069
